# Blender v3.1.2 OBJ File: 'Spent Bullet Cartridge.blend'
# www.blender.org
mtllib Bullet Cartridge.mtl
o Cylinder
v 0.000000 0.931636 -2.587357
v 0.000000 1.000000 1.000000
v 0.547602 0.753709 -2.587357
v 0.587785 0.809017 1.000000
v 0.886038 0.287891 -2.587357
v 0.951057 0.309017 1.000000
v 0.886038 -0.287891 -2.587357
v 0.951056 -0.309017 1.000000
v 0.547602 -0.753709 -2.587357
v 0.587785 -0.809017 1.000000
v -0.000000 -0.931636 -2.587357
v -0.000000 -1.000000 1.000000
v -0.547602 -0.753709 -2.587357
v -0.587785 -0.809017 1.000000
v -0.886038 -0.287891 -2.587357
v -0.951056 -0.309017 1.000000
v -0.886038 0.287891 -2.587357
v -0.951056 0.309017 1.000000
v -0.547602 0.753709 -2.587357
v -0.587785 0.809017 1.000000
v 0.441926 0.608259 1.210841
v 0.000000 0.751849 1.210841
v 0.715051 0.232334 1.210841
v 0.715051 -0.232334 1.210841
v 0.441926 -0.608259 1.210841
v -0.000000 -0.751849 1.210841
v -0.441926 -0.608259 1.210841
v -0.715051 -0.232334 1.210841
v -0.715051 0.232334 1.210841
v -0.441926 0.608259 1.210841
v 0.441926 0.608259 1.531495
v -0.000000 0.751849 1.531495
v 0.715051 0.232334 1.531495
v 0.715051 -0.232334 1.531495
v 0.441926 -0.608259 1.531495
v -0.000000 -0.751849 1.531495
v -0.441926 -0.608259 1.531495
v -0.715051 -0.232334 1.531495
v -0.715051 0.232334 1.531495
v -0.441926 0.608259 1.531495
v 0.584550 0.804564 1.540280
v -0.000000 0.994496 1.540280
v 0.945822 0.307316 1.540280
v 0.945822 -0.307316 1.540280
v 0.584550 -0.804565 1.540280
v -0.000000 -0.994497 1.540280
v -0.584550 -0.804565 1.540280
v -0.945822 -0.307316 1.540280
v -0.945822 0.307316 1.540280
v -0.584550 0.804564 1.540280
v 0.534217 0.735287 1.777476
v 0.584550 0.804564 1.696036
v -0.000000 0.994496 1.696036
v 0.000000 0.908865 1.777476
v 0.864382 0.280855 1.777476
v 0.945822 0.307316 1.696036
v 0.864382 -0.280855 1.777476
v 0.945822 -0.307316 1.696036
v 0.534217 -0.735287 1.777476
v 0.584550 -0.804565 1.696036
v -0.000000 -0.908865 1.777476
v -0.000000 -0.994497 1.696036
v -0.534217 -0.735287 1.777476
v -0.584550 -0.804565 1.696036
v -0.864382 -0.280855 1.777476
v -0.945822 -0.307316 1.696036
v -0.864382 0.280855 1.777476
v -0.945822 0.307316 1.696036
v -0.534217 0.735287 1.777476
v -0.584550 0.804564 1.696036
v 0.000000 1.000000 -2.587357
v 0.587785 0.809017 -2.587357
v 0.951057 0.309017 -2.587357
v 0.951056 -0.309017 -2.587357
v 0.587785 -0.809017 -2.587357
v -0.000000 -1.000000 -2.587357
v -0.587785 -0.809017 -2.587357
v -0.951056 -0.309017 -2.587357
v -0.951056 0.309017 -2.587357
v -0.587785 0.809017 -2.587357
v 0.000000 0.931636 0.965221
v 0.547602 0.753709 0.965221
v 0.886038 0.287891 0.965221
v 0.886038 -0.287891 0.965221
v 0.547602 -0.753709 0.965221
v -0.000000 -0.931636 0.965221
v -0.547602 -0.753709 0.965221
v -0.886038 -0.287891 0.965221
v -0.886038 0.287891 0.965221
v -0.547602 0.753709 0.965221
vt 1.000000 0.500000
vt 1.000000 1.000000
vt 0.900000 1.000000
vt 0.900000 0.500000
vt 0.800000 1.000000
vt 0.800000 0.500000
vt 0.700000 1.000000
vt 0.700000 0.500000
vt 0.600000 1.000000
vt 0.600000 0.500000
vt 0.500000 1.000000
vt 0.500000 0.500000
vt 0.400000 1.000000
vt 0.400000 0.500000
vt 0.300000 1.000000
vt 0.300000 0.500000
vt 0.200000 1.000000
vt 0.200000 0.500000
vt 0.400000 1.000000
vt 0.300000 1.000000
vt 0.100000 1.000000
vt 0.100000 0.500000
vt -0.000000 1.000000
vt -0.000000 0.500000
vt 0.962649 0.180906
vt 0.881424 0.069110
vt 0.881424 0.069110
vt 0.962649 0.180906
vt 0.200000 1.000000
vt 0.300000 1.000000
vt 0.200000 1.000000
vt 0.500000 1.000000
vt 0.600000 1.000000
vt 0.700000 1.000000
vt 1.000000 1.000000
vt 0.900000 1.000000
vt 0.800000 1.000000
vt 0.100000 1.000000
vt -0.000000 1.000000
vt 0.500000 1.000000
vt 0.600000 1.000000
vt 0.600000 1.000000
vt 0.500000 1.000000
vt 0.900000 1.000000
vt 0.800000 1.000000
vt 0.100000 1.000000
vt 0.400000 1.000000
vt 0.700000 1.000000
vt -0.000000 1.000000
vt 1.000000 1.000000
vt -0.000000 1.000000
vt 0.100000 1.000000
vt 0.100000 1.000000
vt -0.000000 1.000000
vt 0.900000 1.000000
vt 0.800000 1.000000
vt 0.200000 1.000000
vt 0.400000 1.000000
vt 0.700000 1.000000
vt 0.300000 1.000000
vt 1.000000 1.000000
vt 0.900000 1.000000
vt 0.800000 1.000000
vt 0.400000 1.000000
vt 0.300000 1.000000
vt 0.700000 1.000000
vt 0.600000 1.000000
vt 0.200000 1.000000
vt 0.500000 1.000000
vt 0.378922 0.427445
vt 0.250000 0.469335
vt 0.121078 0.427445
vt 0.041400 0.317778
vt 0.041400 0.182222
vt 0.121078 0.072555
vt 0.250000 0.030665
vt 0.378922 0.072555
vt 0.458600 0.182222
vt 0.458600 0.317778
vt 1.000000 1.000000
vt 0.995695 1.000000
vt 0.904305 1.000000
vt 0.895695 1.000000
vt 0.804305 1.000000
vt 0.795695 1.000000
vt 0.704305 1.000000
vt 0.695695 1.000000
vt 0.604305 1.000000
vt 0.595695 1.000000
vt 0.504305 1.000000
vt 0.495695 1.000000
vt 0.404305 1.000000
vt 0.395695 1.000000
vt 0.304305 1.000000
vt 0.295695 1.000000
vt 0.204305 1.000000
vt 0.195695 1.000000
vt 0.104305 1.000000
vt 0.095695 1.000000
vt 0.004305 1.000000
vt 0.881425 0.430890
vt 0.750000 0.473593
vt 0.750000 0.490000
vt 0.891068 0.444164
vt 0.962649 0.319094
vt 0.978254 0.324164
vt 0.978254 0.175836
vt 0.891068 0.055836
vt 0.750000 0.026407
vt 0.750000 0.010000
vt 0.618576 0.069110
vt 0.608932 0.055836
vt 0.537351 0.180906
vt 0.521746 0.175836
vt 0.537351 0.319094
vt 0.521746 0.324164
vt 0.618576 0.430890
vt 0.608932 0.444164
vt 0.750000 0.473593
vt 0.881425 0.430890
vt 0.962649 0.319094
vt 0.750000 0.026407
vt 0.618576 0.069110
vt 0.537351 0.180906
vt 0.537351 0.319094
vt 0.618576 0.430890
vn 0.3090 0.9511 0.0000
vn 0.8090 0.5878 0.0000
vn 1.0000 -0.0000 -0.0000
vn 0.8090 -0.5878 -0.0000
vn 0.3090 -0.9511 -0.0000
vn -0.3090 -0.9511 0.0000
vn -0.8090 -0.5878 -0.0000
vn -1.0000 0.0000 0.0000
vn -0.5390 -0.3916 0.7457
vn -0.8090 0.5878 0.0000
vn -0.3090 0.9511 0.0000
vn -0.2059 -0.6336 0.7457
vn 0.2059 -0.6336 0.7457
vn 0.5390 -0.3916 0.7457
vn 0.2059 0.6336 0.7457
vn 0.6662 0.0000 0.7457
vn 0.5390 0.3916 0.7457
vn -0.2059 0.6336 0.7457
vn -0.5390 0.3916 0.7457
vn -0.6662 0.0000 0.7457
vn 0.0118 -0.0362 -0.9993
vn 0.0308 0.0224 -0.9993
vn -0.0308 0.0224 -0.9993
vn -0.0118 -0.0362 -0.9993
vn 0.0380 0.0000 -0.9993
vn -0.0118 0.0362 -0.9993
vn -0.0308 -0.0224 -0.9993
vn 0.0308 -0.0224 -0.9993
vn 0.0118 0.0362 -0.9993
vn -0.0380 0.0000 -0.9993
vn -0.0000 0.0000 1.0000
vn 0.2185 0.6725 0.7071
vn 0.5721 0.4156 0.7071
vn 0.7071 0.0000 0.7071
vn 0.5721 -0.4156 0.7071
vn 0.2185 -0.6725 0.7071
vn -0.2185 -0.6725 0.7071
vn -0.5721 -0.4156 0.7071
vn -0.7071 0.0000 0.7071
vn -0.5721 0.4156 0.7071
vn -0.2185 0.6725 0.7071
vn 0.0000 0.0000 -1.0000
usemtl Golden_Cartridge
s off
f 71/1/1 2/2/1 4/3/1 72/4/1
f 72/4/2 4/3/2 6/5/2 73/6/2
f 73/6/3 6/5/3 8/7/3 74/8/3
f 74/8/4 8/7/4 10/9/4 75/10/4
f 75/10/5 10/9/5 12/11/5 76/12/5
f 76/12/6 12/11/6 14/13/6 77/14/6
f 77/14/7 14/13/7 16/15/7 78/16/7
f 78/16/8 16/15/8 18/17/8 79/18/8
f 16/15/9 14/13/9 27/19/9 28/20/9
f 79/18/10 18/17/10 20/21/10 80/22/10
f 80/22/11 20/21/11 2/23/11 71/24/11
f 7/25/10 9/26/10 85/27/10 84/28/10
f 29/29/8 28/20/8 38/30/8 39/31/8
f 14/13/12 12/11/12 26/32/12 27/19/12
f 12/11/13 10/9/13 25/33/13 26/32/13
f 10/9/14 8/7/14 24/34/14 25/33/14
f 4/3/15 2/2/15 22/35/15 21/36/15
f 8/7/16 6/5/16 23/37/16 24/34/16
f 6/5/17 4/3/17 21/36/17 23/37/17
f 2/23/18 20/21/18 30/38/18 22/39/18
f 20/21/19 18/17/19 29/29/19 30/38/19
f 18/17/20 16/15/20 28/20/20 29/29/20
f 36/40/21 35/41/21 45/42/21 46/43/21
f 26/32/5 25/33/5 35/41/5 36/40/5
f 23/37/2 21/36/2 31/44/2 33/45/2
f 30/38/10 29/29/10 39/31/10 40/46/10
f 27/19/6 26/32/6 36/40/6 37/47/6
f 24/34/3 23/37/3 33/45/3 34/48/3
f 22/39/11 30/38/11 40/46/11 32/49/11
f 28/20/7 27/19/7 37/47/7 38/30/7
f 25/33/4 24/34/4 34/48/4 35/41/4
f 21/36/1 22/35/1 32/50/1 31/44/1
f 42/51/11 50/52/11 70/53/11 53/54/11
f 33/45/22 31/44/22 41/55/22 43/56/22
f 40/46/23 39/31/23 49/57/23 50/52/23
f 37/47/24 36/40/24 46/43/24 47/58/24
f 34/48/25 33/45/25 43/56/25 44/59/25
f 32/49/26 40/46/26 50/52/26 42/51/26
f 38/30/27 37/47/27 47/58/27 48/60/27
f 35/41/28 34/48/28 44/59/28 45/42/28
f 31/44/29 32/50/29 42/61/29 41/55/29
f 39/31/30 38/30/30 48/60/30 49/57/30
f 43/56/2 41/55/2 52/62/2 56/63/2
f 48/60/7 47/58/7 64/64/7 66/65/7
f 45/42/4 44/59/4 58/66/4 60/67/4
f 44/59/3 43/56/3 56/63/3 58/66/3
f 49/57/8 48/60/8 66/65/8 68/68/8
f 46/43/5 45/42/5 60/67/5 62/69/5
f 51/70/31 54/71/31 69/72/31 67/73/31 65/74/31 63/75/31 61/76/31 59/77/31 57/78/31 55/79/31
f 50/52/10 49/57/10 68/68/10 70/53/10
f 47/58/6 46/43/6 62/69/6 64/64/6
f 52/62/32 53/80/32 54/81/32 51/82/32
f 56/63/33 52/62/33 51/83/33 55/84/33
f 58/66/34 56/63/34 55/85/34 57/86/34
f 60/67/35 58/66/35 57/87/35 59/88/35
f 62/69/36 60/67/36 59/89/36 61/90/36
f 64/64/37 62/69/37 61/91/37 63/92/37
f 66/65/38 64/64/38 63/93/38 65/94/38
f 68/68/39 66/65/39 65/95/39 67/96/39
f 70/53/40 68/68/40 67/97/40 69/98/40
f 53/54/41 70/53/41 69/99/41 54/100/41
f 41/55/1 42/61/1 53/80/1 52/62/1
f 3/101/42 1/102/42 71/103/42 72/104/42
f 5/105/42 3/101/42 72/104/42 73/106/42
f 7/25/42 5/105/42 73/106/42 74/107/42
f 9/26/42 7/25/42 74/107/42 75/108/42
f 11/109/42 9/26/42 75/108/42 76/110/42
f 13/111/42 11/109/42 76/110/42 77/112/42
f 15/113/42 13/111/42 77/112/42 78/114/42
f 17/115/42 15/113/42 78/114/42 79/116/42
f 19/117/42 17/115/42 79/116/42 80/118/42
f 1/102/42 19/117/42 80/118/42 71/103/42
f 81/119/42 82/120/42 83/121/42 84/28/42 85/27/42 86/122/42 87/123/42 88/124/42 89/125/42 90/126/42
f 1/102/6 3/101/6 82/120/6 81/119/6
f 15/113/3 17/115/3 89/125/3 88/124/3
f 9/26/11 11/109/11 86/122/11 85/27/11
f 3/101/7 5/105/7 83/121/7 82/120/7
f 17/115/4 19/117/4 90/126/4 89/125/4
f 11/109/1 13/111/1 87/123/1 86/122/1
f 5/105/8 7/25/8 84/28/8 83/121/8
f 19/117/5 1/102/5 81/119/5 90/126/5
f 13/111/2 15/113/2 88/124/2 87/123/2
